<?xml version="1.0" standalone="no"?>
<!DOCTYPE svg PUBLIC "-//W3C//DTD SVG 20010904//EN"
 "http://www.w3.org/TR/2001/REC-SVG-20010904/DTD/svg10.dtd">
<svg version="1.0" xmlns="http://www.w3.org/2000/svg"
 width="214.000000pt" height="214.000000pt" viewBox="0 0 214.000000 214.000000"
 preserveAspectRatio="xMidYMid meet">
<metadata>
Created by potrace 1.11, written by Peter Selinger 2001-2013
</metadata>
<g transform="translate(0.000000,214.000000) scale(0.100000,-0.100000)"
fill="#000000" stroke="none">
<path d="M929 2126 c-2 -2 -25 -7 -50 -10 -149 -20 -350 -112 -488 -225 -149
-121 -274 -303 -335 -487 -18 -54 -19 -61 -41 -169 -17 -87 -12 -294 10 -385
8 -36 18 -75 20 -88 13 -55 86 -207 138 -284 88 -130 183 -222 322 -310 89
-56 243 -121 315 -133 14 -2 57 -9 95 -16 70 -11 280 -7 340 7 17 3 37 7 45 9
12 1 85 22 110 30 137 47 288 143 400 255 154 154 255 345 297 565 9 47 9 339
0 375 -4 14 -9 39 -12 55 -4 17 -10 39 -14 50 -5 11 -14 38 -21 60 -20 65 -87
193 -137 264 -52 72 -146 170 -208 216 -22 17 -42 32 -45 35 -21 24 -223 127
-258 133 -9 1 -22 6 -28 9 -6 4 -31 12 -55 17 -24 5 -57 13 -74 17 -33 7 -319
16 -326 10z m-189 -185 c-1 -15 -19 -29 -65 -51 -189 -88 -353 -251 -430 -427
-10 -23 -24 -44 -32 -47 -21 -8 -43 4 -43 25 0 21 31 92 43 97 4 2 7 10 7 18
0 40 186 246 281 311 42 29 163 93 199 106 13 4 40 -18 40 -32z m50 -130 c11
-22 -9 -51 -36 -51 -8 0 -14 -4 -14 -8 0 -5 -6 -9 -13 -9 -26 0 -133 -77 -197
-142 -79 -82 -91 -97 -132 -178 -35 -66 -52 -81 -74 -62 -20 17 -17 35 13 93
78 146 186 255 333 335 84 46 105 50 120 22z m53 -130 c4 -1 7 -12 7 -25 0
-19 -11 -29 -57 -51 -117 -56 -214 -154 -266 -266 -19 -41 -43 -55 -63 -38
-20 16 -18 32 12 86 46 84 115 164 184 216 51 38 143 84 160 81 8 -1 18 -3 23
-3z m343 -240 c30 -11 76 -35 102 -54 45 -32 128 -129 130 -151 0 -6 8 -30 16
-54 55 -149 -18 -349 -161 -440 -175 -111 -391 -70 -530 101 -45 56 -75 164
-69 252 8 104 40 176 115 253 98 100 264 139 397 93z"/>
<path d="M990 1372 c-30 -9 -56 -19 -58 -24 -2 -4 -11 -8 -20 -8 -9 0 -38 -22
-64 -49 -130 -132 -126 -328 9 -452 54 -48 107 -70 188 -76 173 -13 312 112
323 291 10 161 -92 289 -254 320 -59 11 -77 11 -124 -2z m125 -208 c30 -14 41
-30 58 -85 9 -28 -31 -96 -64 -109 -42 -18 -99 -6 -126 25 -45 52 -42 109 9
157 35 32 73 36 123 12z"/>
</g>
</svg>
